<svg xmlns="http://www.w3.org/2000/svg" version="1.1" xmlns:xlink="http://www.w3.org/1999/xlink" xmlns:svgjs="http://svgjs.dev/svgjs" width="1440" height="560" preserveAspectRatio="none" viewBox="0 0 1440 560"><g mask="url(&quot;#SvgjsMask1010&quot;)" fill="none"><path d="M-66.1 362.1L-66.1 362.1" stroke="rgba(22, 58, 208, 1)" stroke-width="1.5"></path><path d="M-66.1 362.1L-58.14 510.88" stroke="rgba(22, 58, 208, 1)" stroke-width="1.5"></path><path d="M-66.1 362.1L100.85 395.03" stroke="rgba(22, 58, 208, 1)" stroke-width="1.5"></path><path d="M-66.1 362.1L99.62 556.31" stroke="rgba(22, 58, 208, 1)" stroke-width="1.5"></path><path d="M-66.1 362.1L252.84 363.96" stroke="rgba(22, 58, 208, 1)" stroke-width="1.5"></path><path d="M-66.1 362.1L57.09 665.17" stroke="rgba(22, 58, 208, 1)" stroke-width="1.5"></path><path d="M-66.1 362.1L-58.87 696.26" stroke="rgba(22, 58, 208, 1)" stroke-width="1.5"></path><path d="M-58.14 510.88L-58.14 510.88" stroke="rgba(22, 58, 208, 1)" stroke-width="1.5"></path><path d="M-58.14 510.88L99.62 556.31" stroke="rgba(22, 58, 208, 1)" stroke-width="1.5"></path><path d="M-58.14 510.88L-58.87 696.26" stroke="rgba(22, 58, 208, 1)" stroke-width="1.5"></path><path d="M-58.87 696.26L-58.87 696.26" stroke="rgba(22, 58, 208, 1)" stroke-width="1.5"></path><path d="M-58.87 696.26L57.09 665.17" stroke="rgba(22, 58, 208, 1)" stroke-width="1.5"></path><path d="M100.85 395.03L100.85 395.03" stroke="rgba(22, 58, 208, 1)" stroke-width="1.5"></path><path d="M100.85 395.03L252.84 363.96" stroke="rgba(22, 58, 208, 1)" stroke-width="1.5"></path><path d="M100.85 395.03L99.62 556.31" stroke="rgba(22, 58, 208, 1)" stroke-width="1.5"></path><path d="M100.85 395.03L208.08 558.56" stroke="rgba(22, 58, 208, 1)" stroke-width="1.5"></path><path d="M99.62 556.31L99.62 556.31" stroke="rgba(22, 58, 208, 1)" stroke-width="1.5"></path><path d="M99.62 556.31L208.08 558.56" stroke="rgba(22, 58, 208, 1)" stroke-width="1.5"></path><path d="M99.62 556.31L57.09 665.17" stroke="rgba(22, 58, 208, 1)" stroke-width="1.5"></path><path d="M57.09 665.17L57.09 665.17" stroke="rgba(22, 58, 208, 1)" stroke-width="1.5"></path><path d="M57.09 665.17L231.59 668.75" stroke="rgba(22, 58, 208, 1)" stroke-width="1.5"></path><path d="M57.09 665.17L208.08 558.56" stroke="rgba(22, 58, 208, 1)" stroke-width="1.5"></path><path d="M57.09 665.17L-58.14 510.88" stroke="rgba(22, 58, 208, 1)" stroke-width="1.5"></path><path d="M57.09 665.17L100.85 395.03" stroke="rgba(22, 58, 208, 1)" stroke-width="1.5"></path><path d="M252.84 363.96L252.84 363.96" stroke="rgba(22, 58, 208, 1)" stroke-width="1.5"></path><path d="M252.84 363.96L360.84 373.43" stroke="rgba(22, 58, 208, 1)" stroke-width="1.5"></path><path d="M252.84 363.96L208.08 558.56" stroke="rgba(22, 58, 208, 1)" stroke-width="1.5"></path><path d="M252.84 363.96L410.27 499.78" stroke="rgba(22, 58, 208, 1)" stroke-width="1.5"></path><path d="M252.84 363.96L99.62 556.31" stroke="rgba(22, 58, 208, 1)" stroke-width="1.5"></path><path d="M208.08 558.56L208.08 558.56" stroke="rgba(22, 58, 208, 1)" stroke-width="1.5"></path><path d="M208.08 558.56L231.59 668.75" stroke="rgba(22, 58, 208, 1)" stroke-width="1.5"></path><path d="M231.59 668.75L231.59 668.75" stroke="rgba(22, 58, 208, 1)" stroke-width="1.5"></path><path d="M231.59 668.75L99.62 556.31" stroke="rgba(22, 58, 208, 1)" stroke-width="1.5"></path><path d="M231.59 668.75L410.27 499.78" stroke="rgba(22, 58, 208, 1)" stroke-width="1.5"></path><path d="M231.59 668.75L-58.87 696.26" stroke="rgba(22, 58, 208, 1)" stroke-width="1.5"></path><path d="M231.59 668.75L100.85 395.03" stroke="rgba(22, 58, 208, 1)" stroke-width="1.5"></path><path d="M360.84 373.43L360.84 373.43" stroke="rgba(22, 58, 208, 1)" stroke-width="1.5"></path><path d="M360.84 373.43L410.27 499.78" stroke="rgba(22, 58, 208, 1)" stroke-width="1.5"></path><path d="M360.84 373.43L540.59 389.58" stroke="rgba(22, 58, 208, 1)" stroke-width="1.5"></path><path d="M360.84 373.43L208.08 558.56" stroke="rgba(22, 58, 208, 1)" stroke-width="1.5"></path><path d="M360.84 373.43L100.85 395.03" stroke="rgba(22, 58, 208, 1)" stroke-width="1.5"></path><path d="M410.27 499.78L410.27 499.78" stroke="rgba(22, 58, 208, 1)" stroke-width="1.5"></path><path d="M540.59 389.58L540.59 389.58" stroke="rgba(22, 58, 208, 1)" stroke-width="1.5"></path><path d="M540.59 389.58L651.96 347.54" stroke="rgba(22, 58, 208, 1)" stroke-width="1.5"></path><path d="M540.59 389.58L410.27 499.78" stroke="rgba(22, 58, 208, 1)" stroke-width="1.5"></path><path d="M541.07 686.53L541.07 686.53" stroke="rgba(22, 58, 208, 1)" stroke-width="1.5"></path><path d="M541.07 686.53L663.99 676.86" stroke="rgba(22, 58, 208, 1)" stroke-width="1.5"></path><path d="M541.07 686.53L668.74 504.75" stroke="rgba(22, 58, 208, 1)" stroke-width="1.5"></path><path d="M541.07 686.53L410.27 499.78" stroke="rgba(22, 58, 208, 1)" stroke-width="1.5"></path><path d="M541.07 686.53L831.92 685.64" stroke="rgba(22, 58, 208, 1)" stroke-width="1.5"></path><path d="M541.07 686.53L540.59 389.58" stroke="rgba(22, 58, 208, 1)" stroke-width="1.5"></path><path d="M651.96 347.54L651.96 347.54" stroke="rgba(22, 58, 208, 1)" stroke-width="1.5"></path><path d="M651.96 347.54L668.74 504.75" stroke="rgba(22, 58, 208, 1)" stroke-width="1.5"></path><path d="M651.96 347.54L834.68 370.63" stroke="rgba(22, 58, 208, 1)" stroke-width="1.5"></path><path d="M668.74 504.75L668.74 504.75" stroke="rgba(22, 58, 208, 1)" stroke-width="1.5"></path><path d="M668.74 504.75L663.99 676.86" stroke="rgba(22, 58, 208, 1)" stroke-width="1.5"></path><path d="M668.74 504.75L540.59 389.58" stroke="rgba(22, 58, 208, 1)" stroke-width="1.5"></path><path d="M663.99 676.86L663.99 676.86" stroke="rgba(22, 58, 208, 1)" stroke-width="1.5"></path><path d="M663.99 676.86L831.92 685.64" stroke="rgba(22, 58, 208, 1)" stroke-width="1.5"></path><path d="M663.99 676.86L834.36 556.71" stroke="rgba(22, 58, 208, 1)" stroke-width="1.5"></path><path d="M834.68 370.63L834.68 370.63" stroke="rgba(22, 58, 208, 1)" stroke-width="1.5"></path><path d="M834.68 370.63L982.85 404.67" stroke="rgba(22, 58, 208, 1)" stroke-width="1.5"></path><path d="M834.68 370.63L941.71 242.19" stroke="rgba(22, 58, 208, 1)" stroke-width="1.5"></path><path d="M834.68 370.63L834.36 556.71" stroke="rgba(22, 58, 208, 1)" stroke-width="1.5"></path><path d="M834.68 370.63L668.74 504.75" stroke="rgba(22, 58, 208, 1)" stroke-width="1.5"></path><path d="M834.68 370.63L1005.22 553.59" stroke="rgba(22, 58, 208, 1)" stroke-width="1.5"></path><path d="M834.36 556.71L834.36 556.71" stroke="rgba(22, 58, 208, 1)" stroke-width="1.5"></path><path d="M834.36 556.71L831.92 685.64" stroke="rgba(22, 58, 208, 1)" stroke-width="1.5"></path><path d="M834.36 556.71L1005.22 553.59" stroke="rgba(22, 58, 208, 1)" stroke-width="1.5"></path><path d="M834.36 556.71L946.5 686.07" stroke="rgba(22, 58, 208, 1)" stroke-width="1.5"></path><path d="M834.36 556.71L668.74 504.75" stroke="rgba(22, 58, 208, 1)" stroke-width="1.5"></path><path d="M831.92 685.64L831.92 685.64" stroke="rgba(22, 58, 208, 1)" stroke-width="1.5"></path><path d="M831.92 685.64L946.5 686.07" stroke="rgba(22, 58, 208, 1)" stroke-width="1.5"></path><path d="M831.92 685.64L1005.22 553.59" stroke="rgba(22, 58, 208, 1)" stroke-width="1.5"></path><path d="M831.92 685.64L668.74 504.75" stroke="rgba(22, 58, 208, 1)" stroke-width="1.5"></path><path d="M952.1 -44.32L952.1 -44.32" stroke="rgba(22, 58, 208, 1)" stroke-width="1.5"></path><path d="M952.1 -44.32L959.63 42.52" stroke="rgba(22, 58, 208, 1)" stroke-width="1.5"></path><path d="M952.1 -44.32L1102.21 -103.72" stroke="rgba(22, 58, 208, 1)" stroke-width="1.5"></path><path d="M952.1 -44.32L1143.04 80.03" stroke="rgba(22, 58, 208, 1)" stroke-width="1.5"></path><path d="M959.63 42.52L959.63 42.52" stroke="rgba(22, 58, 208, 1)" stroke-width="1.5"></path><path d="M959.63 42.52L1143.04 80.03" stroke="rgba(22, 58, 208, 1)" stroke-width="1.5"></path><path d="M959.63 42.52L941.71 242.19" stroke="rgba(22, 58, 208, 1)" stroke-width="1.5"></path><path d="M959.63 42.52L1102.21 -103.72" stroke="rgba(22, 58, 208, 1)" stroke-width="1.5"></path><path d="M959.63 42.52L1159.37 193.29" stroke="rgba(22, 58, 208, 1)" stroke-width="1.5"></path><path d="M941.71 242.19L941.71 242.19" stroke="rgba(22, 58, 208, 1)" stroke-width="1.5"></path><path d="M941.71 242.19L982.85 404.67" stroke="rgba(22, 58, 208, 1)" stroke-width="1.5"></path><path d="M941.71 242.19L1092.71 357.31" stroke="rgba(22, 58, 208, 1)" stroke-width="1.5"></path><path d="M982.85 404.67L982.85 404.67" stroke="rgba(22, 58, 208, 1)" stroke-width="1.5"></path><path d="M982.85 404.67L1092.71 357.31" stroke="rgba(22, 58, 208, 1)" stroke-width="1.5"></path><path d="M982.85 404.67L1005.22 553.59" stroke="rgba(22, 58, 208, 1)" stroke-width="1.5"></path><path d="M982.85 404.67L1154.93 524.8" stroke="rgba(22, 58, 208, 1)" stroke-width="1.5"></path><path d="M1005.22 553.59L1005.22 553.59" stroke="rgba(22, 58, 208, 1)" stroke-width="1.5"></path><path d="M1005.22 553.59L946.5 686.07" stroke="rgba(22, 58, 208, 1)" stroke-width="1.5"></path><path d="M946.5 686.07L946.5 686.07" stroke="rgba(22, 58, 208, 1)" stroke-width="1.5"></path><path d="M946.5 686.07L1125.04 711.83" stroke="rgba(22, 58, 208, 1)" stroke-width="1.5"></path><path d="M946.5 686.07L1154.93 524.8" stroke="rgba(22, 58, 208, 1)" stroke-width="1.5"></path><path d="M1102.21 -103.72L1102.21 -103.72" stroke="rgba(22, 58, 208, 1)" stroke-width="1.5"></path><path d="M1102.21 -103.72L1271.91 -72.56" stroke="rgba(22, 58, 208, 1)" stroke-width="1.5"></path><path d="M1143.04 80.03L1143.04 80.03" stroke="rgba(22, 58, 208, 1)" stroke-width="1.5"></path><path d="M1143.04 80.03L1159.37 193.29" stroke="rgba(22, 58, 208, 1)" stroke-width="1.5"></path><path d="M1143.04 80.03L1282.21 97.09" stroke="rgba(22, 58, 208, 1)" stroke-width="1.5"></path><path d="M1159.37 193.29L1159.37 193.29" stroke="rgba(22, 58, 208, 1)" stroke-width="1.5"></path><path d="M1159.37 193.29L1261.26 239.7" stroke="rgba(22, 58, 208, 1)" stroke-width="1.5"></path><path d="M1159.37 193.29L1282.21 97.09" stroke="rgba(22, 58, 208, 1)" stroke-width="1.5"></path><path d="M1159.37 193.29L1092.71 357.31" stroke="rgba(22, 58, 208, 1)" stroke-width="1.5"></path><path d="M1159.37 193.29L1303.58 358.35" stroke="rgba(22, 58, 208, 1)" stroke-width="1.5"></path><path d="M1159.37 193.29L941.71 242.19" stroke="rgba(22, 58, 208, 1)" stroke-width="1.5"></path><path d="M1092.71 357.31L1092.71 357.31" stroke="rgba(22, 58, 208, 1)" stroke-width="1.5"></path><path d="M1154.93 524.8L1154.93 524.8" stroke="rgba(22, 58, 208, 1)" stroke-width="1.5"></path><path d="M1154.93 524.8L1263.25 527.5" stroke="rgba(22, 58, 208, 1)" stroke-width="1.5"></path><path d="M1154.93 524.8L1005.22 553.59" stroke="rgba(22, 58, 208, 1)" stroke-width="1.5"></path><path d="M1154.93 524.8L1251.32 661.5" stroke="rgba(22, 58, 208, 1)" stroke-width="1.5"></path><path d="M1154.93 524.8L1092.71 357.31" stroke="rgba(22, 58, 208, 1)" stroke-width="1.5"></path><path d="M1154.93 524.8L1125.04 711.83" stroke="rgba(22, 58, 208, 1)" stroke-width="1.5"></path><path d="M1125.04 711.83L1125.04 711.83" stroke="rgba(22, 58, 208, 1)" stroke-width="1.5"></path><path d="M1125.04 711.83L1251.32 661.5" stroke="rgba(22, 58, 208, 1)" stroke-width="1.5"></path><path d="M1271.91 -72.56L1271.91 -72.56" stroke="rgba(22, 58, 208, 1)" stroke-width="1.5"></path><path d="M1271.91 -72.56L1396.16 -43.67" stroke="rgba(22, 58, 208, 1)" stroke-width="1.5"></path><path d="M1271.91 -72.56L1282.21 97.09" stroke="rgba(22, 58, 208, 1)" stroke-width="1.5"></path><path d="M1271.91 -72.56L1143.04 80.03" stroke="rgba(22, 58, 208, 1)" stroke-width="1.5"></path><path d="M1271.91 -72.56L1429.83 104.61" stroke="rgba(22, 58, 208, 1)" stroke-width="1.5"></path><path d="M1282.21 97.09L1282.21 97.09" stroke="rgba(22, 58, 208, 1)" stroke-width="1.5"></path><path d="M1282.21 97.09L1261.26 239.7" stroke="rgba(22, 58, 208, 1)" stroke-width="1.5"></path><path d="M1282.21 97.09L1429.83 104.61" stroke="rgba(22, 58, 208, 1)" stroke-width="1.5"></path><path d="M1261.26 239.7L1261.26 239.7" stroke="rgba(22, 58, 208, 1)" stroke-width="1.5"></path><path d="M1261.26 239.7L1303.58 358.35" stroke="rgba(22, 58, 208, 1)" stroke-width="1.5"></path><path d="M1303.58 358.35L1303.58 358.35" stroke="rgba(22, 58, 208, 1)" stroke-width="1.5"></path><path d="M1303.58 358.35L1453.58 363.28" stroke="rgba(22, 58, 208, 1)" stroke-width="1.5"></path><path d="M1303.58 358.35L1263.25 527.5" stroke="rgba(22, 58, 208, 1)" stroke-width="1.5"></path><path d="M1303.58 358.35L1453.93 503.27" stroke="rgba(22, 58, 208, 1)" stroke-width="1.5"></path><path d="M1303.58 358.35L1092.71 357.31" stroke="rgba(22, 58, 208, 1)" stroke-width="1.5"></path><path d="M1263.25 527.5L1263.25 527.5" stroke="rgba(22, 58, 208, 1)" stroke-width="1.5"></path><path d="M1263.25 527.5L1251.32 661.5" stroke="rgba(22, 58, 208, 1)" stroke-width="1.5"></path><path d="M1263.25 527.5L1453.93 503.27" stroke="rgba(22, 58, 208, 1)" stroke-width="1.5"></path><path d="M1263.25 527.5L1425.52 651.59" stroke="rgba(22, 58, 208, 1)" stroke-width="1.5"></path><path d="M1263.25 527.5L1125.04 711.83" stroke="rgba(22, 58, 208, 1)" stroke-width="1.5"></path><path d="M1251.32 661.5L1251.32 661.5" stroke="rgba(22, 58, 208, 1)" stroke-width="1.5"></path><path d="M1396.16 -43.67L1396.16 -43.67" stroke="rgba(22, 58, 208, 1)" stroke-width="1.5"></path><path d="M1429.83 104.61L1429.83 104.61" stroke="rgba(22, 58, 208, 1)" stroke-width="1.5"></path><path d="M1429.83 104.61L1396.16 -43.67" stroke="rgba(22, 58, 208, 1)" stroke-width="1.5"></path><path d="M1429.83 104.61L1546.14 227.27" stroke="rgba(22, 58, 208, 1)" stroke-width="1.5"></path><path d="M1429.83 104.61L1612.23 96.05" stroke="rgba(22, 58, 208, 1)" stroke-width="1.5"></path><path d="M1429.83 104.61L1261.26 239.7" stroke="rgba(22, 58, 208, 1)" stroke-width="1.5"></path><path d="M1453.58 363.28L1453.58 363.28" stroke="rgba(22, 58, 208, 1)" stroke-width="1.5"></path><path d="M1453.58 363.28L1545.54 368.57" stroke="rgba(22, 58, 208, 1)" stroke-width="1.5"></path><path d="M1453.58 363.28L1453.93 503.27" stroke="rgba(22, 58, 208, 1)" stroke-width="1.5"></path><path d="M1453.58 363.28L1546.14 227.27" stroke="rgba(22, 58, 208, 1)" stroke-width="1.5"></path><path d="M1453.93 503.27L1453.93 503.27" stroke="rgba(22, 58, 208, 1)" stroke-width="1.5"></path><path d="M1453.93 503.27L1425.52 651.59" stroke="rgba(22, 58, 208, 1)" stroke-width="1.5"></path><path d="M1453.93 503.27L1605.14 548.19" stroke="rgba(22, 58, 208, 1)" stroke-width="1.5"></path><path d="M1425.52 651.59L1425.52 651.59" stroke="rgba(22, 58, 208, 1)" stroke-width="1.5"></path><path d="M1425.52 651.59L1568.11 645.38" stroke="rgba(22, 58, 208, 1)" stroke-width="1.5"></path><path d="M1425.52 651.59L1251.32 661.5" stroke="rgba(22, 58, 208, 1)" stroke-width="1.5"></path><path d="M1425.52 651.59L1605.14 548.19" stroke="rgba(22, 58, 208, 1)" stroke-width="1.5"></path><path d="M1540.63 -81.82L1540.63 -81.82" stroke="rgba(22, 58, 208, 1)" stroke-width="1.5"></path><path d="M1540.63 -81.82L1396.16 -43.67" stroke="rgba(22, 58, 208, 1)" stroke-width="1.5"></path><path d="M1540.63 -81.82L1612.23 96.05" stroke="rgba(22, 58, 208, 1)" stroke-width="1.5"></path><path d="M1540.63 -81.82L1429.83 104.61" stroke="rgba(22, 58, 208, 1)" stroke-width="1.5"></path><path d="M1540.63 -81.82L1271.91 -72.56" stroke="rgba(22, 58, 208, 1)" stroke-width="1.5"></path><path d="M1612.23 96.05L1612.23 96.05" stroke="rgba(22, 58, 208, 1)" stroke-width="1.5"></path><path d="M1612.23 96.05L1546.14 227.27" stroke="rgba(22, 58, 208, 1)" stroke-width="1.5"></path><path d="M1546.14 227.27L1546.14 227.27" stroke="rgba(22, 58, 208, 1)" stroke-width="1.5"></path><path d="M1546.14 227.27L1545.54 368.57" stroke="rgba(22, 58, 208, 1)" stroke-width="1.5"></path><path d="M1546.14 227.27L1303.58 358.35" stroke="rgba(22, 58, 208, 1)" stroke-width="1.5"></path><path d="M1546.14 227.27L1261.26 239.7" stroke="rgba(22, 58, 208, 1)" stroke-width="1.5"></path><path d="M1545.54 368.57L1545.54 368.57" stroke="rgba(22, 58, 208, 1)" stroke-width="1.5"></path><path d="M1545.54 368.57L1453.93 503.27" stroke="rgba(22, 58, 208, 1)" stroke-width="1.5"></path><path d="M1605.14 548.19L1605.14 548.19" stroke="rgba(22, 58, 208, 1)" stroke-width="1.5"></path><path d="M1605.14 548.19L1568.11 645.38" stroke="rgba(22, 58, 208, 1)" stroke-width="1.5"></path><path d="M1605.14 548.19L1545.54 368.57" stroke="rgba(22, 58, 208, 1)" stroke-width="1.5"></path><path d="M1605.14 548.19L1453.58 363.28" stroke="rgba(22, 58, 208, 1)" stroke-width="1.5"></path><path d="M1605.14 548.19L1546.14 227.27" stroke="rgba(22, 58, 208, 1)" stroke-width="1.5"></path><path d="M1568.11 645.38L1568.11 645.38" stroke="rgba(22, 58, 208, 1)" stroke-width="1.5"></path><circle r="5" cx="-66.1" cy="362.1" fill="rgba(22, 58, 208, 1)"></circle><circle r="5" cx="-58.14" cy="510.88" fill="rgba(22, 58, 208, 1)"></circle><circle r="5" cx="-58.87" cy="696.26" fill="rgba(22, 58, 208, 1)"></circle><circle r="5" cx="100.85" cy="395.03" fill="rgba(22, 58, 208, 1)"></circle><circle r="5" cx="99.62" cy="556.31" fill="rgba(22, 58, 208, 1)"></circle><circle r="5" cx="57.09" cy="665.17" fill="rgba(22, 58, 208, 1)"></circle><circle r="5" cx="252.84" cy="363.96" fill="rgba(22, 58, 208, 1)"></circle><circle r="5" cx="208.08" cy="558.56" fill="rgba(22, 58, 208, 1)"></circle><circle r="5" cx="231.59" cy="668.75" fill="rgba(22, 58, 208, 1)"></circle><circle r="5" cx="360.84" cy="373.43" fill="rgba(22, 58, 208, 1)"></circle><circle r="5" cx="410.27" cy="499.78" fill="rgba(22, 58, 208, 1)"></circle><circle r="5" cx="540.59" cy="389.58" fill="rgba(22, 58, 208, 1)"></circle><circle r="5" cx="541.07" cy="686.53" fill="rgba(22, 58, 208, 1)"></circle><circle r="5" cx="651.96" cy="347.54" fill="rgba(22, 58, 208, 1)"></circle><circle r="5" cx="668.74" cy="504.75" fill="rgba(22, 58, 208, 1)"></circle><circle r="5" cx="663.99" cy="676.86" fill="rgba(22, 58, 208, 1)"></circle><circle r="5" cx="834.68" cy="370.63" fill="rgba(22, 58, 208, 1)"></circle><circle r="5" cx="834.36" cy="556.71" fill="rgba(22, 58, 208, 1)"></circle><circle r="5" cx="831.92" cy="685.64" fill="rgba(22, 58, 208, 1)"></circle><circle r="5" cx="952.1" cy="-44.32" fill="rgba(22, 58, 208, 1)"></circle><circle r="5" cx="959.63" cy="42.52" fill="rgba(22, 58, 208, 1)"></circle><circle r="5" cx="941.71" cy="242.19" fill="rgba(22, 58, 208, 1)"></circle><circle r="5" cx="982.85" cy="404.67" fill="rgba(22, 58, 208, 1)"></circle><circle r="5" cx="1005.22" cy="553.59" fill="rgba(22, 58, 208, 1)"></circle><circle r="5" cx="946.5" cy="686.07" fill="rgba(22, 58, 208, 1)"></circle><circle r="5" cx="1102.21" cy="-103.72" fill="rgba(22, 58, 208, 1)"></circle><circle r="5" cx="1143.04" cy="80.03" fill="rgba(22, 58, 208, 1)"></circle><circle r="5" cx="1159.37" cy="193.29" fill="rgba(22, 58, 208, 1)"></circle><circle r="5" cx="1092.71" cy="357.31" fill="rgba(22, 58, 208, 1)"></circle><circle r="5" cx="1154.93" cy="524.8" fill="rgba(22, 58, 208, 1)"></circle><circle r="5" cx="1125.04" cy="711.83" fill="rgba(22, 58, 208, 1)"></circle><circle r="5" cx="1271.91" cy="-72.56" fill="rgba(22, 58, 208, 1)"></circle><circle r="5" cx="1282.21" cy="97.09" fill="rgba(22, 58, 208, 1)"></circle><circle r="5" cx="1261.26" cy="239.7" fill="rgba(22, 58, 208, 1)"></circle><circle r="5" cx="1303.58" cy="358.35" fill="rgba(22, 58, 208, 1)"></circle><circle r="5" cx="1263.25" cy="527.5" fill="rgba(22, 58, 208, 1)"></circle><circle r="5" cx="1251.32" cy="661.5" fill="rgba(22, 58, 208, 1)"></circle><circle r="5" cx="1396.16" cy="-43.67" fill="rgba(22, 58, 208, 1)"></circle><circle r="5" cx="1429.83" cy="104.61" fill="rgba(22, 58, 208, 1)"></circle><circle r="5" cx="1453.58" cy="363.28" fill="rgba(22, 58, 208, 1)"></circle><circle r="5" cx="1453.93" cy="503.27" fill="rgba(22, 58, 208, 1)"></circle><circle r="5" cx="1425.52" cy="651.59" fill="rgba(22, 58, 208, 1)"></circle><circle r="5" cx="1540.63" cy="-81.82" fill="rgba(22, 58, 208, 1)"></circle><circle r="5" cx="1612.23" cy="96.05" fill="rgba(22, 58, 208, 1)"></circle><circle r="5" cx="1546.14" cy="227.27" fill="rgba(22, 58, 208, 1)"></circle><circle r="5" cx="1545.54" cy="368.57" fill="rgba(22, 58, 208, 1)"></circle><circle r="5" cx="1605.14" cy="548.19" fill="rgba(22, 58, 208, 1)"></circle><circle r="5" cx="1568.11" cy="645.38" fill="rgba(22, 58, 208, 1)"></circle><path d="M259.28 519.96L259.28 519.96" stroke="hsl(181.10000000000002, 90.5%, 64.2%)" stroke-width="1.5"></path><path d="M259.28 519.96L392.8 499.76" stroke="hsl(181.10000000000002, 90.5%, 64.2%)" stroke-width="1.5"></path><path d="M259.28 519.96L262.27 683.06" stroke="hsl(181.10000000000002, 90.5%, 64.2%)" stroke-width="1.5"></path><path d="M259.28 519.96L380.33 705.33" stroke="hsl(181.10000000000002, 90.5%, 64.2%)" stroke-width="1.5"></path><path d="M259.28 519.96L41.99 639.02" stroke="hsl(181.10000000000002, 90.5%, 64.2%)" stroke-width="1.5"></path><path d="M259.28 519.96L516.15 702.6" stroke="hsl(181.10000000000002, 90.5%, 64.2%)" stroke-width="1.5"></path><path d="M262.27 683.06L262.27 683.06" stroke="hsl(181.10000000000002, 90.5%, 64.2%)" stroke-width="1.5"></path><path d="M262.27 683.06L380.33 705.33" stroke="hsl(181.10000000000002, 90.5%, 64.2%)" stroke-width="1.5"></path><path d="M1011.25 350.05L1011.25 350.05" stroke="hsl(181.10000000000002, 90.5%, 64.2%)" stroke-width="1.5"></path><path d="M1011.25 350.05L1146.22 387.65" stroke="hsl(181.10000000000002, 90.5%, 64.2%)" stroke-width="1.5"></path><path d="M1011.25 350.05L952.45 502.56" stroke="hsl(181.10000000000002, 90.5%, 64.2%)" stroke-width="1.5"></path><path d="M1011.25 350.05L846.97 344.07" stroke="hsl(181.10000000000002, 90.5%, 64.2%)" stroke-width="1.5"></path><path d="M1011.25 350.05L1122.57 198.4" stroke="hsl(181.10000000000002, 90.5%, 64.2%)" stroke-width="1.5"></path><path d="M958.54 690.67L958.54 690.67" stroke="hsl(181.10000000000002, 90.5%, 64.2%)" stroke-width="1.5"></path><path d="M958.54 690.67L839.46 647.11" stroke="hsl(181.10000000000002, 90.5%, 64.2%)" stroke-width="1.5"></path><path d="M958.54 690.67L952.45 502.56" stroke="hsl(181.10000000000002, 90.5%, 64.2%)" stroke-width="1.5"></path><path d="M958.54 690.67L1090.78 556.74" stroke="hsl(181.10000000000002, 90.5%, 64.2%)" stroke-width="1.5"></path><path d="M958.54 690.67L1157.33 641.24" stroke="hsl(181.10000000000002, 90.5%, 64.2%)" stroke-width="1.5"></path><path d="M958.54 690.67L677.62 659.16" stroke="hsl(181.10000000000002, 90.5%, 64.2%)" stroke-width="1.5"></path><path d="M1155.43 38.04L1155.43 38.04" stroke="hsl(181.10000000000002, 90.5%, 64.2%)" stroke-width="1.5"></path><path d="M1155.43 38.04L1156.16 -87.14" stroke="hsl(181.10000000000002, 90.5%, 64.2%)" stroke-width="1.5"></path><path d="M1155.43 38.04L1256.07 -51.49" stroke="hsl(181.10000000000002, 90.5%, 64.2%)" stroke-width="1.5"></path><path d="M1155.43 38.04L1280.54 107.06" stroke="hsl(181.10000000000002, 90.5%, 64.2%)" stroke-width="1.5"></path><path d="M1155.43 38.04L1122.57 198.4" stroke="hsl(181.10000000000002, 90.5%, 64.2%)" stroke-width="1.5"></path><path d="M1157.33 641.24L1157.33 641.24" stroke="hsl(181.10000000000002, 90.5%, 64.2%)" stroke-width="1.5"></path><path d="M1157.33 641.24L1090.78 556.74" stroke="hsl(181.10000000000002, 90.5%, 64.2%)" stroke-width="1.5"></path><path d="M1157.33 641.24L1257.33 688.82" stroke="hsl(181.10000000000002, 90.5%, 64.2%)" stroke-width="1.5"></path><path d="M1157.33 641.24L1266.3 542.61" stroke="hsl(181.10000000000002, 90.5%, 64.2%)" stroke-width="1.5"></path><path d="M1157.33 641.24L952.45 502.56" stroke="hsl(181.10000000000002, 90.5%, 64.2%)" stroke-width="1.5"></path><path d="M1157.33 641.24L1146.22 387.65" stroke="hsl(181.10000000000002, 90.5%, 64.2%)" stroke-width="1.5"></path><path d="M1280.54 107.06L1280.54 107.06" stroke="hsl(181.10000000000002, 90.5%, 64.2%)" stroke-width="1.5"></path><path d="M1280.54 107.06L1263.18 232.95" stroke="hsl(181.10000000000002, 90.5%, 64.2%)" stroke-width="1.5"></path><path d="M1280.54 107.06L1417.62 97.96" stroke="hsl(181.10000000000002, 90.5%, 64.2%)" stroke-width="1.5"></path><path d="M1280.54 107.06L1256.07 -51.49" stroke="hsl(181.10000000000002, 90.5%, 64.2%)" stroke-width="1.5"></path><path d="M1588.63 562.15L1588.63 562.15" stroke="hsl(181.10000000000002, 90.5%, 64.2%)" stroke-width="1.5"></path><path d="M1588.63 562.15L1582.63 710.72" stroke="hsl(181.10000000000002, 90.5%, 64.2%)" stroke-width="1.5"></path><path d="M1588.63 562.15L1436.29 491.99" stroke="hsl(181.10000000000002, 90.5%, 64.2%)" stroke-width="1.5"></path><path d="M1588.63 562.15L1444.35 686.73" stroke="hsl(181.10000000000002, 90.5%, 64.2%)" stroke-width="1.5"></path><path d="M1588.63 562.15L1581.15 342.46" stroke="hsl(181.10000000000002, 90.5%, 64.2%)" stroke-width="1.5"></path><path d="M1588.63 562.15L1397.21 405.95" stroke="hsl(181.10000000000002, 90.5%, 64.2%)" stroke-width="1.5"></path><path d="M1588.63 562.15L1266.3 542.61" stroke="hsl(181.10000000000002, 90.5%, 64.2%)" stroke-width="1.5"></path><path d="M-111.55 687.44L-111.55 687.44" stroke="hsl(181.10000000000002, 90.5%, 64.2%)" stroke-width="1.5"></path><path d="M-111.55 687.44L41.99 639.02" stroke="hsl(181.10000000000002, 90.5%, 64.2%)" stroke-width="1.5"></path><path d="M-111.55 687.44L262.27 683.06" stroke="hsl(181.10000000000002, 90.5%, 64.2%)" stroke-width="1.5"></path><path d="M-111.55 687.44L259.28 519.96" stroke="hsl(181.10000000000002, 90.5%, 64.2%)" stroke-width="1.5"></path><path d="M-111.55 687.44L380.33 705.33" stroke="hsl(181.10000000000002, 90.5%, 64.2%)" stroke-width="1.5"></path><path d="M41.99 639.02L41.99 639.02" stroke="hsl(181.10000000000002, 90.5%, 64.2%)" stroke-width="1.5"></path><path d="M41.99 639.02L262.27 683.06" stroke="hsl(181.10000000000002, 90.5%, 64.2%)" stroke-width="1.5"></path><path d="M41.99 639.02L380.33 705.33" stroke="hsl(181.10000000000002, 90.5%, 64.2%)" stroke-width="1.5"></path><path d="M41.99 639.02L392.8 499.76" stroke="hsl(181.10000000000002, 90.5%, 64.2%)" stroke-width="1.5"></path><path d="M392.8 499.76L392.8 499.76" stroke="hsl(181.10000000000002, 90.5%, 64.2%)" stroke-width="1.5"></path><path d="M392.8 499.76L380.33 705.33" stroke="hsl(181.10000000000002, 90.5%, 64.2%)" stroke-width="1.5"></path><path d="M380.33 705.33L380.33 705.33" stroke="hsl(181.10000000000002, 90.5%, 64.2%)" stroke-width="1.5"></path><path d="M380.33 705.33L516.15 702.6" stroke="hsl(181.10000000000002, 90.5%, 64.2%)" stroke-width="1.5"></path><path d="M516.15 702.6L516.15 702.6" stroke="hsl(181.10000000000002, 90.5%, 64.2%)" stroke-width="1.5"></path><path d="M516.15 702.6L677.62 659.16" stroke="hsl(181.10000000000002, 90.5%, 64.2%)" stroke-width="1.5"></path><path d="M516.15 702.6L392.8 499.76" stroke="hsl(181.10000000000002, 90.5%, 64.2%)" stroke-width="1.5"></path><path d="M686.14 499.56L686.14 499.56" stroke="hsl(181.10000000000002, 90.5%, 64.2%)" stroke-width="1.5"></path><path d="M686.14 499.56L677.62 659.16" stroke="hsl(181.10000000000002, 90.5%, 64.2%)" stroke-width="1.5"></path><path d="M686.14 499.56L839.46 647.11" stroke="hsl(181.10000000000002, 90.5%, 64.2%)" stroke-width="1.5"></path><path d="M677.62 659.16L677.62 659.16" stroke="hsl(181.10000000000002, 90.5%, 64.2%)" stroke-width="1.5"></path><path d="M677.62 659.16L839.46 647.11" stroke="hsl(181.10000000000002, 90.5%, 64.2%)" stroke-width="1.5"></path><path d="M846.97 344.07L846.97 344.07" stroke="hsl(181.10000000000002, 90.5%, 64.2%)" stroke-width="1.5"></path><path d="M846.97 344.07L952.45 502.56" stroke="hsl(181.10000000000002, 90.5%, 64.2%)" stroke-width="1.5"></path><path d="M839.46 647.11L839.46 647.11" stroke="hsl(181.10000000000002, 90.5%, 64.2%)" stroke-width="1.5"></path><path d="M952.45 502.56L952.45 502.56" stroke="hsl(181.10000000000002, 90.5%, 64.2%)" stroke-width="1.5"></path><path d="M952.45 502.56L1090.78 556.74" stroke="hsl(181.10000000000002, 90.5%, 64.2%)" stroke-width="1.5"></path><path d="M1156.16 -87.14L1156.16 -87.14" stroke="hsl(181.10000000000002, 90.5%, 64.2%)" stroke-width="1.5"></path><path d="M1156.16 -87.14L1256.07 -51.49" stroke="hsl(181.10000000000002, 90.5%, 64.2%)" stroke-width="1.5"></path><path d="M1156.16 -87.14L1280.54 107.06" stroke="hsl(181.10000000000002, 90.5%, 64.2%)" stroke-width="1.5"></path><path d="M1156.16 -87.14L1418.9 -88.94" stroke="hsl(181.10000000000002, 90.5%, 64.2%)" stroke-width="1.5"></path><path d="M1156.16 -87.14L1122.57 198.4" stroke="hsl(181.10000000000002, 90.5%, 64.2%)" stroke-width="1.5"></path><path d="M1122.57 198.4L1122.57 198.4" stroke="hsl(181.10000000000002, 90.5%, 64.2%)" stroke-width="1.5"></path><path d="M1122.57 198.4L1263.18 232.95" stroke="hsl(181.10000000000002, 90.5%, 64.2%)" stroke-width="1.5"></path><path d="M1122.57 198.4L1280.54 107.06" stroke="hsl(181.10000000000002, 90.5%, 64.2%)" stroke-width="1.5"></path><path d="M1122.57 198.4L1146.22 387.65" stroke="hsl(181.10000000000002, 90.5%, 64.2%)" stroke-width="1.5"></path><path d="M1146.22 387.65L1146.22 387.65" stroke="hsl(181.10000000000002, 90.5%, 64.2%)" stroke-width="1.5"></path><path d="M1146.22 387.65L1090.78 556.74" stroke="hsl(181.10000000000002, 90.5%, 64.2%)" stroke-width="1.5"></path><path d="M1146.22 387.65L1263.18 232.95" stroke="hsl(181.10000000000002, 90.5%, 64.2%)" stroke-width="1.5"></path><path d="M1090.78 556.74L1090.78 556.74" stroke="hsl(181.10000000000002, 90.5%, 64.2%)" stroke-width="1.5"></path><path d="M1256.07 -51.49L1256.07 -51.49" stroke="hsl(181.10000000000002, 90.5%, 64.2%)" stroke-width="1.5"></path><path d="M1263.18 232.95L1263.18 232.95" stroke="hsl(181.10000000000002, 90.5%, 64.2%)" stroke-width="1.5"></path><path d="M1263.18 232.95L1398 235.81" stroke="hsl(181.10000000000002, 90.5%, 64.2%)" stroke-width="1.5"></path><path d="M1263.18 232.95L1417.62 97.96" stroke="hsl(181.10000000000002, 90.5%, 64.2%)" stroke-width="1.5"></path><path d="M1266.3 542.61L1266.3 542.61" stroke="hsl(181.10000000000002, 90.5%, 64.2%)" stroke-width="1.5"></path><path d="M1266.3 542.61L1257.33 688.82" stroke="hsl(181.10000000000002, 90.5%, 64.2%)" stroke-width="1.5"></path><path d="M1266.3 542.61L1090.78 556.74" stroke="hsl(181.10000000000002, 90.5%, 64.2%)" stroke-width="1.5"></path><path d="M1266.3 542.61L1436.29 491.99" stroke="hsl(181.10000000000002, 90.5%, 64.2%)" stroke-width="1.5"></path><path d="M1266.3 542.61L1397.21 405.95" stroke="hsl(181.10000000000002, 90.5%, 64.2%)" stroke-width="1.5"></path><path d="M1266.3 542.61L1146.22 387.65" stroke="hsl(181.10000000000002, 90.5%, 64.2%)" stroke-width="1.5"></path><path d="M1257.33 688.82L1257.33 688.82" stroke="hsl(181.10000000000002, 90.5%, 64.2%)" stroke-width="1.5"></path><path d="M1257.33 688.82L1444.35 686.73" stroke="hsl(181.10000000000002, 90.5%, 64.2%)" stroke-width="1.5"></path><path d="M1257.33 688.82L1090.78 556.74" stroke="hsl(181.10000000000002, 90.5%, 64.2%)" stroke-width="1.5"></path><path d="M1257.33 688.82L1436.29 491.99" stroke="hsl(181.10000000000002, 90.5%, 64.2%)" stroke-width="1.5"></path><path d="M1418.9 -88.94L1418.9 -88.94" stroke="hsl(181.10000000000002, 90.5%, 64.2%)" stroke-width="1.5"></path><path d="M1418.9 -88.94L1256.07 -51.49" stroke="hsl(181.10000000000002, 90.5%, 64.2%)" stroke-width="1.5"></path><path d="M1418.9 -88.94L1596.37 -79.51" stroke="hsl(181.10000000000002, 90.5%, 64.2%)" stroke-width="1.5"></path><path d="M1418.9 -88.94L1417.62 97.96" stroke="hsl(181.10000000000002, 90.5%, 64.2%)" stroke-width="1.5"></path><path d="M1418.9 -88.94L1558.48 60.06" stroke="hsl(181.10000000000002, 90.5%, 64.2%)" stroke-width="1.5"></path><path d="M1417.62 97.96L1417.62 97.96" stroke="hsl(181.10000000000002, 90.5%, 64.2%)" stroke-width="1.5"></path><path d="M1417.62 97.96L1398 235.81" stroke="hsl(181.10000000000002, 90.5%, 64.2%)" stroke-width="1.5"></path><path d="M1417.62 97.96L1558.48 60.06" stroke="hsl(181.10000000000002, 90.5%, 64.2%)" stroke-width="1.5"></path><path d="M1417.62 97.96L1591.27 215.92" stroke="hsl(181.10000000000002, 90.5%, 64.2%)" stroke-width="1.5"></path><path d="M1398 235.81L1398 235.81" stroke="hsl(181.10000000000002, 90.5%, 64.2%)" stroke-width="1.5"></path><path d="M1398 235.81L1397.21 405.95" stroke="hsl(181.10000000000002, 90.5%, 64.2%)" stroke-width="1.5"></path><path d="M1398 235.81L1280.54 107.06" stroke="hsl(181.10000000000002, 90.5%, 64.2%)" stroke-width="1.5"></path><path d="M1397.21 405.95L1397.21 405.95" stroke="hsl(181.10000000000002, 90.5%, 64.2%)" stroke-width="1.5"></path><path d="M1397.21 405.95L1436.29 491.99" stroke="hsl(181.10000000000002, 90.5%, 64.2%)" stroke-width="1.5"></path><path d="M1436.29 491.99L1436.29 491.99" stroke="hsl(181.10000000000002, 90.5%, 64.2%)" stroke-width="1.5"></path><path d="M1444.35 686.73L1444.35 686.73" stroke="hsl(181.10000000000002, 90.5%, 64.2%)" stroke-width="1.5"></path><path d="M1444.35 686.73L1582.63 710.72" stroke="hsl(181.10000000000002, 90.5%, 64.2%)" stroke-width="1.5"></path><path d="M1596.37 -79.51L1596.37 -79.51" stroke="hsl(181.10000000000002, 90.5%, 64.2%)" stroke-width="1.5"></path><path d="M1596.37 -79.51L1558.48 60.06" stroke="hsl(181.10000000000002, 90.5%, 64.2%)" stroke-width="1.5"></path><path d="M1596.37 -79.51L1417.62 97.96" stroke="hsl(181.10000000000002, 90.5%, 64.2%)" stroke-width="1.5"></path><path d="M1558.48 60.06L1558.48 60.06" stroke="hsl(181.10000000000002, 90.5%, 64.2%)" stroke-width="1.5"></path><path d="M1558.48 60.06L1591.27 215.92" stroke="hsl(181.10000000000002, 90.5%, 64.2%)" stroke-width="1.5"></path><path d="M1558.48 60.06L1398 235.81" stroke="hsl(181.10000000000002, 90.5%, 64.2%)" stroke-width="1.5"></path><path d="M1558.48 60.06L1280.54 107.06" stroke="hsl(181.10000000000002, 90.5%, 64.2%)" stroke-width="1.5"></path><path d="M1591.27 215.92L1591.27 215.92" stroke="hsl(181.10000000000002, 90.5%, 64.2%)" stroke-width="1.5"></path><path d="M1591.27 215.92L1581.15 342.46" stroke="hsl(181.10000000000002, 90.5%, 64.2%)" stroke-width="1.5"></path><path d="M1591.27 215.92L1398 235.81" stroke="hsl(181.10000000000002, 90.5%, 64.2%)" stroke-width="1.5"></path><path d="M1591.27 215.92L1397.21 405.95" stroke="hsl(181.10000000000002, 90.5%, 64.2%)" stroke-width="1.5"></path><path d="M1591.27 215.92L1596.37 -79.51" stroke="hsl(181.10000000000002, 90.5%, 64.2%)" stroke-width="1.5"></path><path d="M1581.15 342.46L1581.15 342.46" stroke="hsl(181.10000000000002, 90.5%, 64.2%)" stroke-width="1.5"></path><path d="M1581.15 342.46L1397.21 405.95" stroke="hsl(181.10000000000002, 90.5%, 64.2%)" stroke-width="1.5"></path><path d="M1581.15 342.46L1436.29 491.99" stroke="hsl(181.10000000000002, 90.5%, 64.2%)" stroke-width="1.5"></path><path d="M1581.15 342.46L1398 235.81" stroke="hsl(181.10000000000002, 90.5%, 64.2%)" stroke-width="1.5"></path><path d="M1582.63 710.72L1582.63 710.72" stroke="hsl(181.10000000000002, 90.5%, 64.2%)" stroke-width="1.5"></path><path d="M1582.63 710.72L1436.29 491.99" stroke="hsl(181.10000000000002, 90.5%, 64.2%)" stroke-width="1.5"></path><path d="M1582.63 710.72L1257.33 688.82" stroke="hsl(181.10000000000002, 90.5%, 64.2%)" stroke-width="1.5"></path><circle r="25" cx="259.28" cy="519.96" fill="url(&quot;#SvgjsRadialGradient1011&quot;)"></circle><circle r="25" cx="262.27" cy="683.06" fill="url(&quot;#SvgjsRadialGradient1011&quot;)"></circle><circle r="25" cx="1011.25" cy="350.05" fill="url(&quot;#SvgjsRadialGradient1011&quot;)"></circle><circle r="25" cx="958.54" cy="690.67" fill="url(&quot;#SvgjsRadialGradient1011&quot;)"></circle><circle r="25" cx="1155.43" cy="38.04" fill="url(&quot;#SvgjsRadialGradient1011&quot;)"></circle><circle r="25" cx="1157.33" cy="641.24" fill="url(&quot;#SvgjsRadialGradient1011&quot;)"></circle><circle r="25" cx="1280.54" cy="107.06" fill="url(&quot;#SvgjsRadialGradient1011&quot;)"></circle><circle r="25" cx="1588.63" cy="562.15" fill="url(&quot;#SvgjsRadialGradient1011&quot;)"></circle><circle r="5" cx="-111.55" cy="687.44" fill="#86f6f8"></circle><circle r="5" cx="41.99" cy="639.02" fill="#86f6f8"></circle><circle r="5" cx="392.8" cy="499.76" fill="#86f6f8"></circle><circle r="5" cx="380.33" cy="705.33" fill="#86f6f8"></circle><circle r="5" cx="516.15" cy="702.6" fill="#86f6f8"></circle><circle r="5" cx="686.14" cy="499.56" fill="#86f6f8"></circle><circle r="5" cx="677.62" cy="659.16" fill="#86f6f8"></circle><circle r="5" cx="846.97" cy="344.07" fill="#86f6f8"></circle><circle r="5" cx="839.46" cy="647.11" fill="#86f6f8"></circle><circle r="5" cx="952.45" cy="502.56" fill="#86f6f8"></circle><circle r="5" cx="1156.16" cy="-87.14" fill="#86f6f8"></circle><circle r="5" cx="1122.57" cy="198.4" fill="#86f6f8"></circle><circle r="5" cx="1146.22" cy="387.65" fill="#86f6f8"></circle><circle r="5" cx="1090.78" cy="556.74" fill="#86f6f8"></circle><circle r="5" cx="1256.07" cy="-51.49" fill="#86f6f8"></circle><circle r="5" cx="1263.18" cy="232.95" fill="#86f6f8"></circle><circle r="5" cx="1266.3" cy="542.61" fill="#86f6f8"></circle><circle r="5" cx="1257.33" cy="688.82" fill="#86f6f8"></circle><circle r="5" cx="1418.9" cy="-88.94" fill="#86f6f8"></circle><circle r="5" cx="1417.62" cy="97.96" fill="#86f6f8"></circle><circle r="5" cx="1398" cy="235.81" fill="#86f6f8"></circle><circle r="5" cx="1397.21" cy="405.95" fill="#86f6f8"></circle><circle r="5" cx="1436.29" cy="491.99" fill="#86f6f8"></circle><circle r="5" cx="1444.35" cy="686.73" fill="#86f6f8"></circle><circle r="5" cx="1596.37" cy="-79.51" fill="#86f6f8"></circle><circle r="5" cx="1558.48" cy="60.06" fill="#86f6f8"></circle><circle r="5" cx="1591.27" cy="215.92" fill="#86f6f8"></circle><circle r="5" cx="1581.15" cy="342.46" fill="#86f6f8"></circle><circle r="5" cx="1582.63" cy="710.72" fill="#86f6f8"></circle></g><defs><mask id="SvgjsMask1010"><rect width="1440" height="560" fill="#ffffff"></rect></mask><radialGradient id="SvgjsRadialGradient1011"><stop stop-color="#ffffff" offset="0.1"></stop><stop stop-color="rgba(12, 236, 240, 1)" offset="0.2"></stop><stop stop-color="rgba(12, 236, 240, 0)" offset="1"></stop></radialGradient></defs></svg>